<?xml version="1.0" encoding="utf-8"?>
<!-- Generator: Adobe Illustrator 25.1.0, SVG Export Plug-In . SVG Version: 6.00 Build 0)  -->
<svg version="1.1" id="Layer_1" xmlns="http://www.w3.org/2000/svg" xmlns:xlink="http://www.w3.org/1999/xlink" x="0px" y="0px"
	 viewBox="0 0 100 75" style="enable-background:new 0 0 100 75;" xml:space="preserve">
<style type="text/css">
	.st0{fill:#CF649A;}
</style>
<path class="st0" d="M86.1,43c-3.5,0-6.5,0.9-9.1,2.1c-0.9-1.9-1.9-3.5-2-4.7c-0.2-1.4-0.4-2.3-0.2-3.9c0.2-1.7,1.2-4.1,1.2-4.3
	c0-0.2-0.2-1-2.2-1.1s-3.8,0.4-3.9,0.9s-0.6,1.7-0.8,3c-0.4,1.8-4,8.3-6.1,11.8c-0.7-1.3-1.3-2.5-1.4-3.4c-0.2-1.4-0.4-2.3-0.2-3.9
	c0.2-1.7,1.2-4.1,1.2-4.3c0-0.2-0.2-1-2.2-1.1c-2,0-3.8,0.4-3.9,0.9c-0.2,0.5-0.4,1.8-0.8,3c-0.4,1.2-5.3,12.1-6.6,14.9
	c-0.6,1.4-1.2,2.6-1.6,3.4c-0.4,0.8,0,0.1-0.1,0.1c-0.4,0.7-0.5,1-0.5,1v0c-0.3,0.5-0.6,1-0.7,1c-0.1,0-0.3-1.3,0-3.1
	c0.7-3.8,2.5-9.6,2.5-9.9c0-0.1,0.3-1.1-1.1-1.7c-1.4-0.5-1.9,0.4-2.1,0.4c-0.1,0-0.2,0.3-0.2,0.3s1.6-6.6-3-6.6
	c-2.9,0-6.9,3.1-8.8,6c-1.3,0.7-3.9,2.1-6.7,3.7c-1.1,0.6-2.2,1.2-3.2,1.8l-0.2-0.2C17.5,43.2,7.1,39,7.6,31
	c0.2-2.9,1.2-10.6,19.8-19.9c15.3-7.6,27.5-5.5,29.7-0.9c3,6.6-6.5,19-22.4,20.8c-6.1,0.7-9.2-1.7-10-2.5c-0.8-0.9-1-1-1.3-0.8
	c-0.5,0.3-0.2,1.1,0,1.6c0.5,1.2,2.4,3.4,5.7,4.5c2.9,1,10,1.5,18.6-1.8c9.6-3.7,17.1-14.1,14.9-22.7C60.4,0.4,45.8-2.5,32,2.4
	C23.7,5.3,14.8,9.9,8.4,15.9C0.8,23-0.4,29.2,0.1,31.8C1.9,41,14.6,47,19.6,51.4c-0.3,0.1-0.5,0.3-0.7,0.4
	C16.4,53,6.7,58.1,4.3,63.5c-2.7,6.1,0.4,10.4,2.5,11c6.5,1.8,13.2-1.4,16.8-6.8c3.6-5.4,3.2-12.3,1.5-15.5L25.1,52l2-1.2
	c1.3-0.8,2.6-1.5,3.7-2.1c-0.6,1.7-1.1,3.7-1.3,6.6c-0.3,3.4,1.1,7.9,3,9.6c0.8,0.8,1.8,0.8,2.4,0.8c2.1,0,3.1-1.8,4.2-3.9
	c1.3-2.6,2.5-5.6,2.5-5.6s-1.5,8.1,2.5,8.1c1.5,0,2.9-1.9,3.6-2.9v0c0,0,0-0.1,0.1-0.2c0.1-0.1,0.2-0.2,0.2-0.4v0
	c0.6-1,1.9-3.3,3.8-7.2c2.5-5,4.9-11.2,4.9-11.2s0.2,1.5,1,4c0.4,1.5,1.4,3.1,2.1,4.7c-0.6,0.8-0.9,1.3-0.9,1.3l0,0
	c-0.5,0.6-1,1.3-1.5,2c-2,2.4-4.4,5.1-4.7,5.9c-0.4,0.9-0.3,1.6,0.4,2.1c0.5,0.4,1.5,0.5,2.5,0.4c1.8-0.1,3-0.6,3.7-0.8
	c1-0.4,2.1-0.9,3.2-1.7c2-1.4,3.1-3.5,3-6.2c-0.1-1.5-0.5-3-1.2-4.4c0.2-0.3,0.4-0.5,0.5-0.8c3.1-4.5,5.5-9.5,5.5-9.5s0.2,1.5,1,4
	c0.4,1.3,1.1,2.7,1.8,4c-2.9,2.4-4.7,5.1-5.3,6.9c-1.2,3.3-0.3,4.8,1.4,5.2c0.8,0.2,1.9-0.2,2.7-0.5c1-0.3,2.2-0.9,3.4-1.7
	c2-1.4,3.8-3.5,3.7-6.2c-0.1-1.3-0.4-2.5-0.8-3.7c2.5-1,5.6-1.6,9.7-1.1c8.7,1,10.4,6.4,10.1,8.7c-0.3,2.3-2.1,3.5-2.8,3.9
	c-0.6,0.4-0.8,0.5-0.7,0.8c0.1,0.4,0.4,0.4,0.9,0.3c0.7-0.1,4.6-1.9,4.7-6C100.2,48.8,95.1,43,86.1,43L86.1,43z M19,65.6
	c-2.9,3.1-6.9,4.3-8.6,3.3c-1.9-1.1-1.1-5.7,2.4-9c2.1-2,4.9-3.9,6.8-5.1c0.4-0.3,1-0.6,1.8-1.1c0.1-0.1,0.2-0.1,0.2-0.1
	c0.1-0.1,0.3-0.2,0.4-0.3C23.3,58.2,22.1,62.3,19,65.6L19,65.6z M40,51.4c-1,2.4-3.1,8.7-4.4,8.4c-1.1-0.3-1.8-5-0.2-9.7
	c0.8-2.4,2.4-5.2,3.4-6.3c1.6-1.8,3.3-2.3,3.7-1.6C43.1,43,40.7,49.8,40,51.4z M57.4,59.6c-0.4,0.2-0.8,0.4-1,0.3
	c-0.1-0.1,0.2-0.4,0.2-0.4s2.2-2.3,3-3.4c0.5-0.6,1.1-1.3,1.7-2.2v0.2C61.3,57,58.6,58.9,57.4,59.6L57.4,59.6z M70.7,56.6
	c-0.3-0.2-0.3-1,0.8-3.2c0.4-0.9,1.3-2.4,3-3.8c0.2,0.6,0.3,1.2,0.3,1.7C74.8,54.7,72.3,56.1,70.7,56.6z"/>
</svg>
